<svg width="131" height="36" viewBox="0 0 131 36" fill="none" xmlns="http://www.w3.org/2000/svg">
<rect y="1.90735e-06" width="35.989" height="36" rx="8" fill="#FFCB11" style="fill:#FFCB11;fill:color(display-p3 1.0000 0.7961 0.0667);fill-opacity:1;"/>
<path d="M20.0894 30.375C33.5851 28.3876 33.5854 7.61255 20.0894 5.62505C28.2008 11.6267 28.1789 24.3708 20.0894 30.375Z" fill="#200124" style="fill:#200124;fill:color(display-p3 0.1255 0.0039 0.1412);fill-opacity:1;"/>
<path d="M14.4661 29.8511C15.3127 30.1285 16.1594 30.3134 17.0665 30.375C24.0938 23.8036 24.0983 12.1953 17.0665 5.62505C16.1594 5.71751 15.2825 5.90244 14.4661 6.14902C20.3696 12.7552 20.3677 23.2471 14.4661 29.8511Z" fill="#200124" style="fill:#200124;fill:color(display-p3 0.1255 0.0039 0.1412);fill-opacity:1;"/>
<path d="M11.0447 28.125C17.0774 22.7019 17.1347 13.2845 11.0447 7.87505C3.61176 12.5947 3.60864 23.4034 11.0447 28.125Z" fill="#200124" style="fill:#200124;fill:color(display-p3 0.1255 0.0039 0.1412);fill-opacity:1;"/>
<path d="M112.501 20.6006C112.501 17.1633 114.978 14.7974 118.392 14.7974C121.806 14.7974 124.282 17.1633 124.282 20.6006C124.282 24.0379 121.806 26.4038 118.392 26.4038C114.978 26.4038 112.501 24.0379 112.501 20.6006ZM115.223 20.6006C115.223 22.6094 116.517 23.9709 118.392 23.9709C120.266 23.9709 121.56 22.6094 121.56 20.6006C121.56 18.5918 120.266 17.2303 118.392 17.2303C116.517 17.2303 115.223 18.5918 115.223 20.6006Z" fill="#1D1F17" style="fill:#1D1F17;fill:color(display-p3 0.1144 0.1208 0.0886);fill-opacity:1;"/>
<path d="M102.731 26.136H100.009V9.52991H102.753V16.5384C103.445 15.467 104.739 14.7751 106.323 14.7751C109.045 14.7751 110.473 16.4938 110.473 19.3507V26.136H107.751V19.998C107.751 18.1454 106.836 17.2526 105.453 17.2526C103.735 17.2526 102.731 18.4579 102.731 20.1096V26.136Z" fill="#1D1F17" style="fill:#1D1F17;fill:color(display-p3 0.1144 0.1208 0.0886);fill-opacity:1;"/>
<path d="M86.1936 31.2473V15.1099H88.715L88.8935 16.7839C89.5629 15.5117 91.0132 14.7751 92.6867 14.7751C95.7882 14.7751 97.8411 17.0294 97.8411 20.489C97.8411 23.9263 95.9668 26.4261 92.6867 26.4261C91.0355 26.4261 89.6075 25.7789 88.9158 24.6629V31.2473H86.1936ZM88.9381 20.6229C88.9381 22.6094 90.1653 23.9709 92.0396 23.9709C93.9586 23.9709 95.0965 22.5871 95.0965 20.6229C95.0965 18.6588 93.9586 17.2526 92.0396 17.2526C90.1653 17.2526 88.9381 18.6365 88.9381 20.6229Z" fill="#1D1F17" style="fill:#1D1F17;fill:color(display-p3 0.1144 0.1208 0.0886);fill-opacity:1;"/>
<path d="M77.2493 26.4261C74.9064 26.4261 73.4784 25.0646 73.4784 22.9889C73.4784 20.9577 74.951 19.6855 77.5617 19.4846L80.864 19.2391V18.9936C80.864 17.4981 79.9715 16.8955 78.5881 16.8955C76.9815 16.8955 76.089 17.5651 76.089 18.7257H73.7684C73.7684 16.3375 75.732 14.7751 78.722 14.7751C81.6896 14.7751 83.5193 16.3821 83.5193 19.44V26.136H81.1318L80.931 24.5066C80.4624 25.6449 78.9674 26.4261 77.2493 26.4261ZM78.1418 24.3727C79.8153 24.3727 80.8863 23.3683 80.8863 21.672V21.0917L78.5881 21.2702C76.8923 21.4265 76.2452 21.9845 76.2452 22.8773C76.2452 23.8817 76.9146 24.3727 78.1418 24.3727Z" fill="#1D1F17" style="fill:#1D1F17;fill:color(display-p3 0.1144 0.1208 0.0886);fill-opacity:1;"/>
<path d="M72.5625 15.0653V17.5874H71.5584C69.5949 17.5874 68.3676 18.6365 68.3676 20.7792V26.136H65.6454V15.1322H68.2114L68.3676 16.7393C68.8362 15.6456 69.8849 14.909 71.3576 14.909C71.7369 14.909 72.1162 14.9537 72.5625 15.0653Z" fill="#1D1F17" style="fill:#1D1F17;fill:color(display-p3 0.1144 0.1208 0.0886);fill-opacity:1;"/>
<path d="M55.7333 12.2306C52.4979 12.2306 50.6459 14.5742 50.6459 18.1008C50.6459 21.7389 52.7433 23.7254 55.7556 23.7254C58.5894 23.7254 60.3075 22.163 60.3075 19.5516V19.4846H55.3763V16.9625H62.9628V26.136H60.5529L60.3744 24.2611C59.4819 25.511 57.6299 26.3815 55.4209 26.3815C50.8467 26.3815 47.6559 23.0558 47.6559 18.0338C47.6559 13.0788 50.8913 9.55223 55.8002 9.55223C59.5265 9.55223 62.4049 11.7173 62.8735 15.0429H59.8612C59.348 13.1234 57.6968 12.2306 55.7333 12.2306Z" fill="#1D1F17" style="fill:#1D1F17;fill:color(display-p3 0.1144 0.1208 0.0886);fill-opacity:1;"/>
</svg>
